<?xml version="1.0" encoding="utf-8"?>
<!-- Generator: Adobe Illustrator 28.0.0, SVG Export Plug-In . SVG Version: 6.00 Build 0)  -->
<svg version="1.1" id="Layer_1" xmlns="http://www.w3.org/2000/svg" xmlns:xlink="http://www.w3.org/1999/xlink" x="0px" y="0px"
	 viewBox="0 0 1150.7 640.6" style="enable-background:new 0 0 1150.7 640.6;" xml:space="preserve">
<style type="text/css">
	.st0{fill:#172D20;}
	.st1{fill:#FFFFFF;}
</style>
<g>
	<g>
		<path class="st0" d="M225.3,288.2c-40.5,0-75.2-28.4-75.2-72c0-43.9,34.7-72,75.2-72c40.3,0,75,28.2,75,72
			C300.3,259.8,265.6,288.2,225.3,288.2z M225.3,150.6c-33.8,0-57.4,24.6-57.4,65.6c0,40.7,23.6,65.6,57.4,65.6
			c33.6,0,57.4-24.8,57.4-65.6C282.7,175.2,258.9,150.6,225.3,150.6z"/>
		<path class="st0" d="M433.8,283.2c-3.3,2.5-8.1,3.3-12.7,3.3c-18.8,0-25.7-18.4-32.4-36.8c-5.4-14.4-12.7-27.8-24.2-29.7
			c-3.1,0-6.1,0-9-0.2c0,28.6,0.2,48.7,0.4,54.9c0.2,5.6,1.9,7.5,6.5,9.4l-0.2,1c-4-0.4-10-0.6-14.8-0.6c-4.6,0-10.4,0.2-14.6,0.6
			l-0.2-1c4.6-1.9,6.3-3.8,6.5-9.4c0.2-6.3,0.4-26.3,0.4-58.7c0-32.6-0.2-52.6-0.4-58.7c-0.2-6.5-2.9-8.4-6.5-8.8v-1
			c8.1-0.4,19.6-0.6,28.2-0.6c38.4,0,56,15.7,56,34.5c0,21.3-16.9,33.6-41.1,37.6c11.9,4.2,22.3,19.6,30.9,34.5
			c14.2,24.4,19.4,30.1,27.1,28.4L433.8,283.2z M355.5,213.8c2.3,0.2,4.4,0.4,6.7,0.4c26.1,0,36.8-13.8,36.8-32.8
			c0-20.3-12.9-29.2-43-29.2C355.7,162.7,355.5,186.3,355.5,213.8z"/>
		<path class="st0" d="M560.9,165c-12.9-9.2-28.2-12.3-47.4-12.3h-3.3v63.5c0,32.4,0.2,52.4,0.4,58.7c0.2,5.6,1.9,7.5,6.5,9.4
			l-0.2,1c-4-0.4-10-0.6-14.8-0.6c-4.6,0-10.4,0.2-14.6,0.6l-0.2-1c4.6-1.9,6.3-3.8,6.5-9.4c0.2-6.3,0.4-26.3,0.4-58.7v-63.5h-3.3
			c-19.2,0-34.7,3.1-47.6,12.3l-1-0.8c1.9-4.6,4.2-11.9,5-16.5h109.8c1,4.6,3.1,11.7,5,16.3L560.9,165z"/>
		<path class="st0" d="M600.4,284.6c-4.8,0-10.6,0.2-14.8,0.6l-0.2-1c4.6-1.9,6.3-3.8,6.5-9.4c0.2-6.3,0.4-26.3,0.4-58.7
			c0-32.6-0.2-52.6-0.4-58.7c-0.2-5.6-1.9-7.5-6.5-9.4l0.2-1c4.2,0.4,10,0.6,14.8,0.6h69.3c1,4.8,2.9,11.3,5,16.3l-1.3,0.8
			c-11.9-10.2-28.2-12.3-47-12.3c-5.6,0-11.7,0.2-17.7,0.6c-0.2,8.6-0.4,30.3-0.4,58.3c45.9-0.2,49.1-1.9,51.4-8.8l1,0.2
			c-0.6,4-0.8,6.7-0.8,11.3c0,4.6,0.2,7.5,0.8,11.3l-1,0.2c-2.5-7.5-5.4-8.6-51.4-8.8c0,30.9,0.2,54.9,0.4,62.9H623
			c23.8,0,46.6-2.1,60.3-12.3l1,0.8c-2.1,4-5.6,11.7-7.5,16.5H600.4z"/>
		<path class="st0" d="M846.4,225.9c-4.4,1.7-6.3,3.8-6.5,9.2c-0.2,6.3-0.4,14.8-0.4,23c-12.9,18.8-34.9,30.1-59.9,30.1
			c-41.6,0-77.5-28.4-77.5-72c0-43.9,35.9-72,77.5-72c20.7,0,42.2,6.7,54.9,19.6l0.8,16.9l-1.3,0.4c-9.8-20.5-29.7-30.5-54.5-30.5
			c-32.2,0-59.7,25.3-59.7,65.6c0,39.9,27.4,65.6,59.7,65.6c16.1,0,31.3-4.6,44.1-14.2c0-9.6-0.2-26.1-0.4-32.2
			c-0.2-5.6-1.9-7.5-6.5-9.4l0.2-1c4,0.4,9.8,0.6,14.6,0.6c4.8,0,10.6-0.2,14.6-0.6L846.4,225.9z"/>
		<path class="st0" d="M1000.5,284.2l-0.2,1c-5.2-0.4-11.5-0.6-16.7-0.6c-5.2,0-12.1,0.2-17.5,0.8l-0.4-1.3c5.8-2.1,7.5-4.4,5-9.6
			c-2.3-5.4-7.9-17.7-14.8-32.6h-67.7c-5.4,12.3-10.2,23.2-13.2,30.3c-2.7,6.9-0.8,9.8,5.2,11.9l-0.2,1.3c-4.4-0.6-9.4-0.8-13.4-0.8
			c-4.8,0-9,0.2-12.9,0.6l-0.2-1c4-1.3,8.4-4.2,11.3-10.2c14.4-28.8,43-88.5,60.6-128.4h2.9c15.9,35.1,47.6,102.5,59.9,126.8
			C991.3,278.4,996.4,282.9,1000.5,284.2z M952.9,235.5c-11.1-24-24.2-52.2-31.5-67.4c-7.9,16.9-20.3,44.1-30.5,67.4H952.9z"/>
	</g>
	<g>
		<path class="st0" d="M208.5,496.5c-15.9,0-31.9-5.6-40.7-13.2l-3.3-20.5l1.7-0.6c10,18.6,26.7,27.8,42.8,27.8
			c19.6,0,32.2-12.1,32.2-28.8c0-17.1-13.6-25.3-35.3-34.7c-22.8-10-37-19.2-37-38.6c0-23,19-35.5,42.4-35.5
			c15.7,0,26.9,3.8,34.5,10.2l1.9,17.3l-1.5,0.8c-8.4-16.5-21.3-21.9-35.9-21.9c-15.7,0-28,9-28,23.2c0,14.8,11.3,21.3,32.4,29.9
			c23,9.6,40.7,19.4,40.7,44.7C255.3,481.5,234.8,496.5,208.5,496.5z"/>
		<path class="st0" d="M285.8,424.5c0-43.9,35.9-72,77.5-72c20.7,0,42.2,6.7,54.9,19.6L419,389l-1.3,0.4
			c-9.8-20.5-29.7-30.5-54.5-30.5c-32.6,0-59.7,25.3-59.7,65.6c0,40.1,27.1,65.6,59.7,65.6c26.5,0,41.8-8.4,54.7-26.1l1.3,0.6
			l-0.6,10.9c-12.9,13.4-33,21.1-55.3,21.1C321.7,496.5,285.8,468.1,285.8,424.5z"/>
		<path class="st0" d="M583.6,492.6l-0.2,1c-2.9-0.4-9.8-0.6-14.6-0.6c-4.8,0-10.6,0.2-14.6,0.6l-0.2-1c4.6-1.9,6.3-3.8,6.5-9.4
			c0.2-6.3,0.4-25.9,0.4-57.4h-88.5c0,31.5,0.2,51.2,0.4,57.4c0.2,5.6,1.9,7.5,6.5,9.4l-0.2,1c-4-0.4-10-0.6-14.6-0.6
			c-4.8,0-10.6,0.2-14.8,0.8l-0.2-1.3c4.6-1.9,6.3-3.8,6.5-9.4c0.2-6.3,0.4-26.3,0.4-58.7c0-32.6-0.2-52.6-0.4-58.7
			c-0.2-5.6-1.9-7.5-6.5-9.4l0.2-1c4.2,0.4,10,0.6,14.8,0.6c4.6,0,10.6-0.2,14.6-0.6l0.2,1c-4.6,1.7-6.3,3.8-6.5,9.2
			c-0.2,5.8-0.4,24.2-0.4,53.7h88.5c0-29.4-0.2-47.8-0.4-53.5c-0.2-5.6-1.9-7.5-6.5-9.4l0.2-1c4,0.4,9.8,0.6,14.6,0.6
			c4.8,0,10.6-0.2,14.6-0.6l0.2,1c-4.4,1.7-6.3,3.8-6.5,9.2c-0.2,6.3-0.4,26.3-0.4,58.9c0,32.4,0.2,52.4,0.4,58.7
			C577.4,488.8,579.3,490.7,583.6,492.6z"/>
		<path class="st0" d="M741.8,356.4c-3.5,1.3-6.3,2.9-6.5,8.6c-0.6,10.4-1.3,27.4-1.3,74.1c0,36.3-19.2,57.4-52.8,57.4
			c-31.9,0-58.7-15.2-58.7-55.1c0-49.5-0.2-69.5-0.4-75.6c-0.2-5.6-1.9-7.5-6.5-9.4l0.2-1c4.2,0.4,10,0.6,14.8,0.6
			c4.6,0,10.6-0.2,14.6-0.6l0.2,1c-4.6,1.7-6.3,3.8-6.5,9.2c-0.2,6.3-0.4,26.3-0.4,75.8c0,30.9,16.9,46.1,45.5,46.1
			c28.8,0,43.9-18,43.9-48.4c0-40.1-1-63.7-1.5-74.1c-0.4-5.6-3.1-7.3-6.5-8.6l0.2-1c3.3,0.4,7.1,0.6,10.4,0.6
			c3.1,0,6.9-0.2,10.9-0.6L741.8,356.4z"/>
		<path class="st0" d="M864.4,476.5c-2.1,4.2-5.4,11.5-7.3,16.5h-65.4c-8.4,0-14.2,0.2-18.4,0.6l-0.2-1c4.6-1.9,6.3-3.8,6.5-9.4
			c0.2-6.3,0.4-26.3,0.4-58.7c0-32.6-0.2-52.6-0.4-58.7c-0.2-5.6-1.9-7.5-6.5-9.4l0.2-1c4.2,0.4,10,0.6,14.8,0.6
			c4.6,0,10.6-0.2,14.6-0.6l0.2,1c-4.6,1.7-6.3,3.8-6.5,9.2c-0.2,6.3-0.4,26.3-0.4,58.9c0,32.4,0.2,49.9,0.4,63.5h14
			c22.8,0,39.3-2.1,52.8-12.3L864.4,476.5z"/>
		<path class="st0" d="M902.3,493c-4.8,0-10.6,0.2-14.8,0.6l-0.2-1c4.6-1.9,6.3-3.8,6.5-9.4c0.2-6.3,0.4-26.3,0.4-58.7
			c0-32.6-0.2-52.6-0.4-58.7c-0.2-5.6-1.9-7.5-6.5-9.4l0.2-1c4.2,0.4,10,0.6,14.8,0.6h69.3c1,4.8,2.9,11.3,5,16.3l-1.3,0.8
			c-11.9-10.2-28.2-12.3-47-12.3c-5.6,0-11.7,0.2-17.7,0.6c-0.2,8.6-0.4,30.3-0.4,58.3c45.9-0.2,49.1-1.9,51.4-8.8l1,0.2
			c-0.6,4-0.8,6.7-0.8,11.3c0,4.6,0.2,7.5,0.8,11.3l-1,0.2c-2.5-7.5-5.4-8.6-51.4-8.8c0,30.9,0.2,54.9,0.4,62.9h14.2
			c23.8,0,46.6-2.1,60.3-12.3l1,0.8c-2.1,4-5.6,11.7-7.5,16.5H902.3z"/>
	</g>
</g>
</svg>
